# xmcd
#
# Track frame offsets:
#	150
#	18982
#	38782
#	73057
#	98032
#	118057
#	146782
#	166657
#	194032
#	219082
#	234757
#	254332
#	274967
#	316442
#	340020
#
# Disc length: 4748 seconds
#
# Revision: 0
# Processed by: cddbd v1.4PL0 Copyright (c) Steve Scherf et al.
# Submitted via: EasyCDDAExtractor 4.6.9.1
#
DISCID=d6128a0f
DTITLE=Leonard Cohen - Love Ballads
DYEAR=2002
DGENRE=Ballad
TTITLE0=Here It Is
TTITLE1=I'm Your Man
TTITLE2=Waiting For The Miracle
TTITLE3=You Have Loved Enough
TTITLE4=Be For Real
TTITLE5=A Thousand Kisses Deep
TTITLE6=The Law
TTITLE7=Anthem
TTITLE8=Tower Of Song
TTITLE9=Coming Back To You
TTITLE10=True Love Leaves No Traces
TTITLE11=Night Comes On
TTITLE12=Death Of A Ladies Man
TTITLE13=By The Rivers Dark
TTITLE14=Seems So Long Ago, Nancy
EXTD=
EXTT0=
EXTT1=
EXTT2=
EXTT3=
EXTT4=
EXTT5=
EXTT6=
EXTT7=
EXTT8=
EXTT9=
EXTT10=
EXTT11=
EXTT12=
EXTT13=
EXTT14=
PLAYORDER=
